<svg width="29" height="28" viewBox="0 0 29 28" fill="none" xmlns="http://www.w3.org/2000/svg">
<g id="u:user">
<path id="Vector" d="M18.8283 14.8283C19.9721 13.9284 20.807 12.6944 21.2168 11.2979C21.6266 9.90147 21.5909 8.41199 21.1147 7.03673C20.6386 5.66146 19.7456 4.4688 18.5601 3.62468C17.3745 2.78055 15.9554 2.32693 14.5 2.32693C13.0446 2.32693 11.6255 2.78055 10.4399 3.62468C9.25437 4.4688 8.3614 5.66146 7.88524 7.03673C7.40909 8.41199 7.37343 9.90147 7.78322 11.2979C8.19301 12.6944 9.02787 13.9284 10.1717 14.8283C8.21175 15.6136 6.50166 16.9159 5.2237 18.5966C3.94574 20.2772 3.14782 22.2732 2.915 24.3717C2.89814 24.5249 2.91163 24.6799 2.95469 24.8279C2.99775 24.9759 3.06954 25.114 3.16596 25.2342C3.36068 25.4771 3.64391 25.6326 3.95333 25.6667C4.26275 25.7007 4.57302 25.6104 4.81588 25.4157C5.05874 25.221 5.21429 24.9378 5.24833 24.6283C5.50451 22.3477 6.59196 20.2415 8.30292 18.7119C10.0139 17.1824 12.2284 16.3369 14.5233 16.3369C16.8183 16.3369 19.0328 17.1824 20.7437 18.7119C22.4547 20.2415 23.5421 22.3477 23.7983 24.6283C23.8301 24.915 23.9668 25.1798 24.1823 25.3715C24.3977 25.5633 24.6766 25.6684 24.965 25.6667H25.0933C25.3992 25.6315 25.6787 25.4769 25.871 25.2365C26.0633 24.9961 26.1528 24.6894 26.12 24.3833C25.8861 22.2789 25.0839 20.2778 23.7993 18.5946C22.5148 16.9113 20.7964 15.6094 18.8283 14.8283ZM14.5 14C13.577 14 12.6748 13.7263 11.9073 13.2135C11.1399 12.7008 10.5418 11.9719 10.1886 11.1192C9.83535 10.2665 9.74293 9.32817 9.923 8.42293C10.1031 7.51768 10.5475 6.68616 11.2002 6.03351C11.8528 5.38087 12.6843 4.93641 13.5896 4.75635C14.4948 4.57628 15.4331 4.6687 16.2859 5.02191C17.1386 5.37512 17.8674 5.97326 18.3802 6.74069C18.893 7.50811 19.1667 8.41037 19.1667 9.33335C19.1667 10.571 18.675 11.758 17.7998 12.6332C16.9247 13.5083 15.7377 14 14.5 14Z" fill="white"/>
</g>
</svg>
